<svg width="24" height="20" viewBox="0 0 24 20" fill="none" xmlns="http://www.w3.org/2000/svg">
<path d="M0 9.76906C0.118594 9.36388 0.392812 9.06972 0.688125 8.77925C3.45328 6.05959 6.21141 3.33345 8.97281 0.609627C9.56953 0.0212925 10.3481 0.0194425 10.9444 0.60269C11.1661 0.819615 11.3892 1.03562 11.6072 1.25578C12.2114 1.86631 12.2189 2.60728 11.6119 3.21967C10.9078 3.93011 10.1916 4.62899 9.48 5.3325C8.58094 6.22147 7.68141 7.10999 6.78234 7.99897C6.74531 8.03551 6.71062 8.07482 6.63984 8.15067C6.77062 8.15067 6.85969 8.15067 6.94922 8.15067C12.0877 8.15067 17.2261 8.15067 22.3645 8.15067C23.3161 8.15067 23.6381 8.35974 24.0005 9.21356V10.7399C23.9072 10.9314 23.8397 11.1418 23.715 11.3111C23.422 11.708 23.002 11.8518 22.5103 11.8514C17.31 11.8477 12.1092 11.849 6.90891 11.849C6.81797 11.849 6.72703 11.849 6.63609 11.849C6.62437 11.8675 6.61219 11.886 6.60047 11.9045C6.90562 12.1955 7.21453 12.4827 7.515 12.7778C8.87672 14.114 10.237 15.4521 11.5955 16.7911C12.2156 17.4021 12.218 18.1255 11.6058 18.7453C11.3822 18.9715 11.1572 19.1963 10.9275 19.416C10.3434 19.9747 9.56531 19.9733 8.98875 19.4054C6.13312 16.5904 3.27703 13.7759 0.432656 10.9499C0.239531 10.7589 0.142031 10.4735 0 10.2316C0 10.0776 0 9.92308 0 9.76906Z" fill="#011E38"/>
</svg>
