<svg width="24" height="24" viewBox="0 0 24 24" fill="none" xmlns="http://www.w3.org/2000/svg">
<g clip-path="url(#clip0_37_258)">
<path d="M18.3156 5.6844L12.6312 5.0532L5.6832 5.6844L5.052 12L5.6832 18.3156L11.9988 19.1052L18.3144 18.3156L18.9456 11.8416L18.3144 5.6832L18.3156 5.6844Z" fill="white"/>
<path d="M8.27521 15.4836C7.80361 15.1644 7.47601 14.6988 7.29721 14.0832L8.39281 13.632C8.49241 14.0112 8.66641 14.3052 8.91361 14.5128C9.15961 14.7216 9.45961 14.8236 9.81001 14.8236C10.1604 14.8236 10.476 14.7144 10.734 14.4972C10.992 14.28 11.1204 14.0016 11.1204 13.6656C11.1204 13.3296 10.9848 13.0404 10.7136 12.822C10.4424 12.6036 10.1004 12.4956 9.69361 12.4956H9.06001V11.4108H9.62881C9.97921 11.4108 10.2744 11.316 10.5144 11.1264C10.7544 10.9368 10.8744 10.6776 10.8744 10.3476C10.8744 10.0536 10.7676 9.8208 10.5528 9.6444C10.338 9.468 10.0668 9.3804 9.73681 9.3804C9.40681 9.3804 9.15841 9.4656 8.97001 9.6372C8.78161 9.8088 8.64361 10.0212 8.55601 10.2708L7.47121 9.8196C7.61521 9.4128 7.87921 9.0528 8.26561 8.7408C8.65201 8.43 9.14641 8.274 9.74641 8.274C10.1904 8.274 10.59 8.3592 10.9428 8.5308C11.2968 8.7024 11.574 8.9412 11.7744 9.2448C11.9748 9.5496 12.0744 9.8904 12.0744 10.2696C12.0744 10.6488 11.9808 10.9836 11.7948 11.2512C11.6088 11.5188 11.3796 11.7252 11.1084 11.868V11.9328C11.4672 12.0828 11.7588 12.312 11.9892 12.6192C12.2184 12.9276 12.3336 13.2948 12.3336 13.7244C12.3336 14.154 12.2244 14.538 12.0072 14.874C11.79 15.21 11.4876 15.4752 11.106 15.6684C10.722 15.8604 10.2912 15.9588 9.81241 15.9588C9.25801 15.96 8.74681 15.8004 8.27401 15.4824L8.27521 15.4836Z" fill="#364372"/>
<path d="M15 10.0452L13.8036 10.9152L13.2024 10.002L15.3612 8.4456H16.1892V15.7896H15.0012V10.0452H15Z" fill="#364372"/>
<path d="M18.3156 24L24 18.3156L21.1584 17.052L18.3168 18.3156L17.0532 21.1572L18.3168 23.9988L18.3156 24Z" fill="#364372"/>
<path d="M4.42081 21.1584L5.68441 24H18.3156V18.3156H5.68441L4.42081 21.1572V21.1584Z" fill="#364372"/>
<path d="M1.8948 0C0.8484 0 0 0.8484 0 1.8948V18.3156L2.8416 19.5792L5.6832 18.3156V5.6844H18.3144L19.578 2.8428L18.3156 0H1.8948Z" fill="#364372"/>
<path d="M0 18.3156V22.1052C0 23.1516 0.8484 24 1.8948 24H5.6844V18.3156H0Z" fill="#364372"/>
<path d="M18.3156 5.6844V18.3156H24V5.6844L21.1584 4.4208L18.3168 5.6844H18.3156Z" fill="#364372"/>
<path d="M24 5.6844V1.8948C24 0.8484 23.1516 0 22.1052 0H18.3156V5.6844H24Z" fill="#364372"/>
</g>
<defs>
<clipPath id="clip0_37_258">
<rect width="24" height="24" fill="white"/>
</clipPath>
</defs>
</svg>
