<svg width="24" height="24" viewBox="0 0 24 24" fill="none" xmlns="http://www.w3.org/2000/svg">
<path d="M17.7711 1.55366C16.5445 0.531516 14.6229 0 12.0062 0C10.6569 0 9.51213 0.122658 8.57176 0.408859C7.63138 0.69506 6.81366 1.06303 6.20038 1.55366C5.58709 2.04429 5.13734 2.61669 4.85114 3.27087C4.41366 4.38705 4.44228 5.26201 4.44228 6.41908H8.24467C8.24467 5.56048 8.48998 4.82453 9.0215 4.21124C9.55302 3.59796 10.5343 3.31175 12.0471 3.31175C12.783 3.31175 13.3963 3.39353 13.8869 3.55707C14.7496 3.82692 15.277 4.35026 15.6859 5.06985C15.9149 6.02658 15.9394 7.06099 15.645 7.76831C15.3547 8.4552 14.95 8.7414 14.1731 9.15843C12.6031 9.73083 11.0372 10.2828 9.5939 10.7939C8.89884 11.0392 8.28556 11.2436 7.75404 11.4072C6.69101 11.7751 5.87329 12.4293 5.26 13.3697C4.6876 14.3101 4.4014 15.3322 4.4014 16.4361C4.38096 17.7404 4.34416 19.2491 4.6876 20.3612C4.89203 21.0153 5.26 21.5877 5.8324 22.1192C6.40481 22.6508 7.18164 23.1005 8.1629 23.4685C9.14416 23.8365 10.4116 24 12.0062 24C13.6007 24 14.8682 23.8365 15.8494 23.4685C16.8307 23.1005 17.6075 22.6508 18.1799 22.1192C19.1775 21.2484 19.5741 19.9441 19.6109 18.6031V5.39693C19.5701 3.84327 18.9976 2.57581 17.7711 1.55366ZM15.0317 19.7888C14.5002 20.3612 13.4781 20.6474 12.0062 20.6474C10.5343 20.6474 9.55302 20.3612 9.0215 19.8296C8.48998 19.2981 8.20378 18.4395 8.20378 17.2947C8.22423 15.8024 9.04603 14.9724 10.289 14.3918C11.7609 13.8603 13.3268 13.3247 14.6637 12.7973C15.1421 12.6501 15.6614 12.3721 15.7677 11.816L15.8494 17.2947C15.8494 18.3577 15.5632 19.1755 15.0317 19.7888Z" fill="#364372"/>
</svg>
