<svg width="24" height="24" viewBox="0 0 24 24" fill="none" xmlns="http://www.w3.org/2000/svg">
<g clip-path="url(#clip0_37_270)">
<path d="M11.475 0.0112495C10.1437 0.10125 9.21562 0.2775 8.11874 0.6525C6.85499 1.08562 5.62312 1.74937 4.58437 2.55937C4.01812 3.00187 3.23062 3.7575 2.79937 4.275C1.20374 6.18937 0.288742 8.40375 0.0449923 10.9406C0.00374235 11.3606 -0.00188265 12.4894 0.0337423 12.9C0.127492 13.9688 0.314992 14.8763 0.633742 15.825C1.37999 18.0356 2.71874 19.9556 4.50937 21.3844C6.23437 22.7588 8.30249 23.6288 10.5094 23.9044C11.0925 23.9775 11.3062 23.9888 12.0094 23.9888C12.7069 23.9888 13.0444 23.9681 13.5844 23.895C15.8531 23.5894 17.97 22.6519 19.7625 21.1594C20.1281 20.8556 20.9025 20.0831 21.2006 19.725C22.7962 17.8088 23.7112 15.5963 23.955 13.0594C23.9962 12.6394 24.0019 11.5106 23.9662 11.1C23.8931 10.2638 23.7637 9.53625 23.5594 8.80312C23.0906 7.11938 22.29 5.595 21.1519 4.22812C20.8556 3.87187 20.0794 3.09562 19.725 2.79938C17.8144 1.2075 15.5737 0.28125 13.0687 0.0450001C12.78 0.0187492 11.7112 -0.00374985 11.475 0.0112495ZM12.8194 2.40937C14.295 2.54437 15.6 2.9625 16.8656 3.69938C18.4725 4.63688 19.8094 6.07312 20.625 7.73438C21.1406 8.7825 21.4294 9.76875 21.5737 10.9744C21.6206 11.3531 21.63 12.39 21.5925 12.7987C21.4762 14.0606 21.1744 15.1481 20.6344 16.2469C19.7025 18.1406 18.1425 19.7025 16.2656 20.625C15.2175 21.1406 14.2312 21.4294 13.0256 21.5738C12.6469 21.6206 11.61 21.63 11.2012 21.5925C9.70312 21.4556 8.40562 21.0413 7.13437 20.3006C4.96312 19.0331 3.32437 16.8825 2.69812 14.4844C2.47874 13.6369 2.39249 12.9619 2.39437 12.0656C2.39437 11.0681 2.51999 10.2037 2.79562 9.28687C3.38812 7.32 4.57124 5.595 6.17624 4.35188C6.84937 3.83063 7.59562 3.39937 8.36249 3.08813C9.21937 2.73937 10.1756 2.50312 11.0625 2.42062C11.1806 2.40937 11.3081 2.39625 11.3437 2.39437C11.5519 2.37375 12.5475 2.385 12.8194 2.40937Z" fill="#F5C08C"/>
<path d="M9.33749 7.785C9.22499 7.84312 9.15187 7.9575 9.07312 8.1975L9.00937 8.39062L9.01312 9.59062C9.01499 10.2506 9.02624 11.9044 9.03749 13.2656C9.05812 15.5644 9.06187 15.7519 9.09374 15.8906C9.21937 16.4325 9.42937 16.5319 10.0425 16.335C10.065 16.3275 11.4937 15.5081 13.2187 14.5125C16.1569 12.8175 16.3631 12.6956 16.4812 12.5775C16.6537 12.4069 16.7325 12.2512 16.7212 12.0994C16.71 11.9475 16.6444 11.8256 16.4906 11.6719C16.365 11.5462 16.2262 11.4637 13.1906 9.70125C10.9669 8.40937 9.98624 7.84875 9.89999 7.8225C9.61687 7.7325 9.46124 7.72312 9.33749 7.785Z" fill="#F5C08C"/>
</g>
<defs>
<clipPath id="clip0_37_270">
<rect width="24" height="24" fill="white"/>
</clipPath>
</defs>
</svg>
