<svg width="16" height="16" viewBox="0 0 16 16" fill="none" xmlns="http://www.w3.org/2000/svg">
<g clip-path="url(#clip0_37_244)">
<path d="M15.8789 0.520161C15.7577 0.289788 15.5712 0.135475 15.3245 0.0519022C15.2876 0.0393819 15.2541 0.0174714 15.219 -0.000370026H9.31478C9.27378 0.0187234 9.23434 0.041886 9.19208 0.0565973C8.69127 0.229064 8.41488 0.771506 8.57201 1.27514C8.70755 1.70865 9.0747 1.96876 9.56988 1.97032C10.5224 1.97314 11.4752 1.97126 12.4276 1.97126C12.4821 1.97126 12.5363 1.97126 12.6248 1.97126C12.5594 2.03981 12.5219 2.08113 12.4824 2.12026C10.8335 3.76949 9.18426 5.41841 7.53565 7.06796C7.4696 7.13401 7.40356 7.2013 7.34534 7.27455C6.93279 7.79445 7.17882 8.60765 7.81109 8.80578C8.23084 8.93724 8.58266 8.81642 8.88878 8.50968C10.5505 6.84416 12.2154 5.18115 13.8794 3.51752C13.9204 3.47652 13.9633 3.4377 14.0284 3.37604C14.0284 3.47933 14.0284 3.54162 14.0284 3.60391C14.0296 4.58268 14.0252 5.56115 14.0349 6.53961C14.0393 6.97688 14.3573 7.33809 14.7996 7.44889C15.1987 7.54874 15.6588 7.34748 15.8657 6.97719C15.9177 6.88391 15.9555 6.78281 15.9997 6.68516V0.780897C15.9596 0.69388 15.9233 0.604986 15.8785 0.520161H15.8789Z" fill="#F5C08C"/>
<path d="M13.0302 5.54837C13.0302 5.49892 13.0302 5.44946 13.0302 5.36777C12.9676 5.42505 12.9297 5.4576 12.8947 5.49266C12.4158 5.97093 11.9394 6.45171 11.457 6.92623C11.3681 7.01356 11.3328 7.10089 11.3331 7.22546C11.3365 9.51104 11.3356 11.7963 11.3356 14.0819V14.2916H1.70496V4.66475H1.9153C4.20589 4.66475 6.49647 4.66538 8.78737 4.66162C8.86688 4.66162 8.96861 4.63627 9.02244 4.58368C9.53609 4.08162 10.0419 3.57142 10.5493 3.06247C10.5718 3.03993 10.5869 3.01019 10.6153 2.96982H10.4695C7.2937 2.96982 4.11793 2.9742 0.94247 2.96575C0.380309 2.96449 -0.00156024 3.37328 4.79266e-06 3.91228C0.0109601 7.62924 0.00563893 11.3465 0.00595193 15.0635C0.00595193 15.6526 0.346504 15.9941 0.934332 15.9941C4.65161 15.9941 8.36857 15.9887 12.0855 16C12.6236 16.0016 13.0365 15.6228 13.0349 15.0444C13.0252 11.8793 13.0302 8.71382 13.0302 5.54868V5.54837Z" fill="#F5C08C"/>
</g>
<defs>
<clipPath id="clip0_37_244">
<rect width="16" height="16" fill="white"/>
</clipPath>
</defs>
</svg>
