<svg width="20" height="24" viewBox="0 0 20 24" fill="none" xmlns="http://www.w3.org/2000/svg">
<g clip-path="url(#clip0_40_146)">
<path d="M12.0627 20.9621H3.26967V3.03786H12.0627C12.9008 3.03786 13.5802 2.35559 13.5802 1.5204C13.5802 0.685204 12.8979 0.0029349 12.0627 0.0029349H3.07558C1.50813 -5.91273e-06 0.231812 1.24102 0.231812 2.77024V21.1739C0.231812 21.9208 0.531775 22.6325 1.07877 23.1707C1.61988 23.7059 2.32861 24 3.07558 24H12.0627C12.9008 24 13.5802 23.3177 13.5802 22.4825C13.5802 21.6473 12.8979 20.9651 12.0627 20.9651V20.9621Z" fill="#011E38"/>
<path d="M19.6088 10.7428L15.7593 6.46392C15.4887 6.16102 15.1153 5.98457 14.7094 5.96398C14.3036 5.9434 13.9154 6.08162 13.6154 6.35217C13.3125 6.62273 13.1361 6.99915 13.1155 7.40792C13.0949 7.8167 13.2302 8.21077 13.5037 8.51073L15.08 10.2693H7.78675C6.94862 10.2693 6.26929 10.9516 6.26929 11.7868C6.26929 12.622 6.95156 13.3043 7.78675 13.3043H14.8065L13.5566 14.5482C12.9655 15.1393 12.9655 16.098 13.5566 16.6891C13.8419 16.9744 14.2213 17.1303 14.63 17.1303C15.0388 17.1303 15.4152 16.9715 15.7034 16.6833L19.553 12.8308C20.1235 12.2603 20.1499 11.3398 19.6088 10.7399V10.7428Z" fill="#011E38"/>
</g>
<defs>
<clipPath id="clip0_40_146">
<rect width="19.7682" height="24" fill="white" transform="translate(0.231812)"/>
</clipPath>
</defs>
</svg>
