<svg width="24" height="24" viewBox="0 0 24 24" fill="none" xmlns="http://www.w3.org/2000/svg">
<path d="M17.1396 10.3709C21.6029 6.52748 20.6828 3.67593 20.0433 2.59926C18.6078 0.171854 14.6273 -0.72211 11.3517 0.6482C11.3451 0.6482 11.3321 0.654725 11.3256 0.654725L11.1885 0.713453C10.164 1.1637 9.30271 1.69877 8.51315 2.3774C8.50663 2.3774 8.49358 2.38393 8.48705 2.39045C6.21625 4.30236 4.28477 7.52585 3.67139 10.4166C2.18362 17.4508 6.19667 21.0984 8.72196 22.6515C8.72196 22.6515 8.72196 22.6515 8.72849 22.6515L8.83942 22.7232C9.12653 22.8929 9.56372 23.1343 10.014 23.317C10.0205 23.317 10.027 23.3236 10.0401 23.3301C10.0857 23.3497 10.151 23.3758 10.2293 23.4019L10.2619 23.4149C10.2619 23.4149 10.2619 23.4149 10.2685 23.4149C10.3533 23.4475 10.4838 23.4932 10.5686 23.5259C11.5083 23.8391 12.4544 23.9957 13.3745 23.9957C14.6404 23.9957 15.8541 23.702 16.9373 23.1148C18.6339 22.2012 19.8476 20.6678 20.3435 18.8015C21.2831 15.2844 20.0238 12.0479 17.1331 10.3578L17.1396 10.3709ZM15.2799 12.7918C16.5393 13.3007 17.3614 14.2143 17.8117 15.2714C17.8117 15.2714 17.8117 15.2714 17.8117 15.2779C17.8639 15.4019 17.9161 15.5324 17.9552 15.6564C17.9683 15.6955 17.9748 15.7347 17.9879 15.7673C18.014 15.8586 18.0466 15.9565 18.0662 16.0544C18.0792 16.1131 18.0923 16.1784 18.1053 16.2371C18.1184 16.3089 18.1379 16.3807 18.151 16.459C18.164 16.5307 18.1706 16.609 18.1836 16.6808C18.1902 16.7396 18.2032 16.8048 18.2032 16.8635C18.2097 16.9418 18.2163 17.0201 18.2163 17.0984C18.2163 17.1572 18.2228 17.2224 18.2228 17.2812C18.2228 17.3529 18.2228 17.4247 18.2228 17.4965C18.2228 17.5617 18.2228 17.6335 18.2163 17.6988C18.2163 17.7575 18.2097 17.8097 18.2032 17.8684C18.1967 17.9598 18.1836 18.0511 18.1706 18.136C18.164 18.1947 18.151 18.2469 18.1445 18.3056C18.1314 18.3839 18.1118 18.4688 18.0988 18.5471C18.0857 18.6188 18.0662 18.6906 18.0466 18.7559C18.0335 18.8211 18.014 18.8798 17.9944 18.9451C17.9683 19.0299 17.9422 19.1148 17.9161 19.1996C17.8965 19.2453 17.8835 19.2975 17.8639 19.3431C17.8313 19.4345 17.7921 19.5259 17.753 19.6237C17.7334 19.6629 17.7138 19.7086 17.6942 19.7477C17.6486 19.8391 17.6094 19.9369 17.5572 20.0283C17.5311 20.0805 17.4985 20.1262 17.4724 20.1784C17.4267 20.2567 17.381 20.335 17.3288 20.4133C17.2766 20.4981 17.2179 20.5764 17.1592 20.6547C17.1265 20.6939 17.1004 20.7396 17.0678 20.7787C16.1869 21.9076 14.797 22.7363 12.859 22.8276C12.4348 22.8472 12.0107 22.8081 11.6257 22.7493C11.4561 22.7232 11.2994 22.6906 11.1494 22.658C11.1298 22.658 11.1037 22.6515 11.0841 22.6449C10.9145 22.6058 10.7644 22.5601 10.6339 22.5144L10.5556 22.4883C10.5034 22.4688 10.4642 22.4557 10.4185 22.4361C10.4185 22.4361 10.4185 22.4361 10.412 22.4361C9.81168 22.1882 9.43322 21.8162 9.24398 21.2812C9.20483 21.1702 9.17873 21.0593 9.15915 20.9353C9.15263 20.8962 9.15263 20.8505 9.1461 20.8048C9.13958 20.72 9.12653 20.6417 9.12653 20.5568C9.12653 20.5046 9.12653 20.4459 9.12653 20.3937C9.12653 20.3089 9.12653 20.2306 9.13958 20.1392C9.13958 20.0805 9.15263 20.0218 9.15915 19.9565C9.17221 19.8717 9.18526 19.7803 9.20483 19.689C9.21788 19.6303 9.23093 19.565 9.24398 19.4998C9.26356 19.4019 9.29619 19.2975 9.32229 19.1996C9.34186 19.1409 9.35491 19.0821 9.37449 19.0234C9.41364 18.8929 9.46584 18.7559 9.51805 18.6188C9.5311 18.5927 9.53762 18.5601 9.55067 18.534C9.61592 18.3774 9.68118 18.2208 9.75948 18.0642C9.78558 18.0903 9.81821 18.1099 9.84431 18.136C9.89651 18.1816 9.94871 18.2273 10.0009 18.2665C10.0662 18.3187 10.1379 18.3709 10.2097 18.4231C10.2685 18.4622 10.3207 18.5014 10.3794 18.5405C10.4512 18.5862 10.5295 18.6319 10.6012 18.671C10.66 18.7037 10.7187 18.7363 10.784 18.7624C10.8623 18.8015 10.9406 18.8342 11.0254 18.8668C11.0841 18.8929 11.1428 18.919 11.2081 18.9386C11.2929 18.9712 11.3778 18.9973 11.4626 19.0169C11.5213 19.0365 11.58 19.0495 11.6388 19.0626C11.7301 19.0821 11.8215 19.1017 11.9128 19.1148C11.9716 19.1213 12.0303 19.1343 12.089 19.1409C12.1804 19.1539 12.2717 19.1539 12.3631 19.1604C12.4087 19.1604 12.4544 19.167 12.5001 19.167C12.5132 19.167 12.5262 19.167 12.5327 19.167C12.6959 19.167 12.859 19.1539 13.0221 19.1278C14.2097 18.9451 15.1298 18.1425 15.5474 16.9288C15.5474 16.9288 15.5474 16.9288 15.5474 16.9223C15.5539 16.9027 15.5605 16.8766 15.567 16.857C15.6061 16.733 15.6388 16.596 15.6649 16.4524C15.6714 16.4068 15.6844 16.3676 15.691 16.3285C15.691 16.2958 15.6975 16.2697 15.704 16.2371C15.704 16.2045 15.7105 16.1784 15.7171 16.1458C15.7171 16.1327 15.7171 16.1197 15.7171 16.1001C15.7171 16.074 15.7236 16.0413 15.7236 16.0152C15.7236 16.0152 15.7236 16.0022 15.7236 15.9957C15.7497 15.7281 15.7432 15.5259 15.7366 15.4475C15.7366 15.4345 15.7301 15.4214 15.7236 15.4084C15.7105 15.1604 15.6779 14.9059 15.5866 14.6645C15.5866 14.6645 15.5605 14.5927 15.5539 14.5927L15.5278 14.5405C15.5278 14.5405 15.4887 14.4622 15.4822 14.4492C15.4626 14.41 15.443 14.3709 15.43 14.3448C15.1102 13.7575 14.5751 13.3399 13.9357 13.1702C13.8769 13.1572 13.8117 13.1376 13.753 13.1311C13.9618 12.9484 14.1902 12.7591 14.4316 12.5503C14.6926 12.609 14.9471 12.6874 15.182 12.7787C15.2016 12.7852 15.2277 12.7918 15.2472 12.8048L15.2799 12.7918ZM7.68444 17.5813C7.69749 17.4378 7.71054 17.2942 7.73012 17.1506C7.74317 17.0593 7.76274 16.9679 7.77579 16.8766C7.8019 16.733 7.828 16.596 7.86715 16.4524C7.88672 16.3611 7.91283 16.2697 7.93893 16.1784C7.97808 16.0348 8.02376 15.8978 8.06943 15.7542C8.10206 15.6629 8.12816 15.5715 8.16079 15.4802C8.21299 15.3366 8.27172 15.1931 8.33044 15.056C8.35654 14.9973 8.37612 14.9451 8.40222 14.8864C8.40222 14.9582 8.4218 15.0365 8.43485 15.1148C8.43485 15.1474 8.44137 15.1735 8.4479 15.2061C8.54578 15.8717 8.76111 16.5438 9.10695 17.2029C9.0939 17.2224 9.08738 17.242 9.07433 17.2616C9.04823 17.3073 9.02212 17.3595 8.99602 17.4117C8.97645 17.4443 8.9634 17.4834 8.94382 17.5161C8.89814 17.6074 8.85247 17.6988 8.81331 17.7967C8.80026 17.8228 8.78721 17.8554 8.77416 17.8815C8.74154 17.9598 8.70238 18.0446 8.66976 18.1294C8.65671 18.1686 8.63713 18.2077 8.62408 18.2469C8.58493 18.3448 8.5523 18.4427 8.51968 18.5405C8.51315 18.5666 8.5001 18.5862 8.49358 18.6123C8.45442 18.7298 8.41527 18.8603 8.38265 18.9843C8.3696 19.0234 8.36307 19.0626 8.35002 19.1082C8.32392 19.2061 8.30434 19.2975 8.28477 19.3953C8.27824 19.441 8.26519 19.4802 8.25867 19.5259C8.23256 19.6564 8.21299 19.7934 8.19994 19.9239C8.19994 19.95 8.19994 19.9826 8.19341 20.0087C8.18036 20.1197 8.17384 20.2306 8.17384 20.3415C8.17384 20.3611 8.17384 20.3807 8.17384 20.4068C8.17384 20.4068 8.16731 20.3937 8.16079 20.3872C7.97155 19.9957 7.84105 19.5846 7.76274 19.1539C7.74969 19.0952 7.74969 19.043 7.74317 18.9843C7.71707 18.8276 7.69749 18.6645 7.69097 18.5014C7.69097 18.4231 7.69097 18.3448 7.69097 18.2665C7.69097 18.1229 7.69097 17.9728 7.69097 17.8228C7.69097 17.7379 7.70402 17.6531 7.71054 17.5617L7.68444 17.5813ZM9.02212 10.2077C8.99602 10.1686 8.97645 10.1294 8.95687 10.0903C8.88509 9.96631 8.80679 9.8358 8.73501 9.71182C8.71544 9.67267 8.69586 9.63352 8.67628 9.60089C8.60451 9.47039 8.53925 9.33335 8.474 9.19632C8.46095 9.1637 8.44137 9.13107 8.42832 9.09844C8.36307 8.95489 8.29782 8.81133 8.23909 8.66125C8.23256 8.63515 8.21951 8.61557 8.21299 8.58947C8.15426 8.42634 8.09553 8.26973 8.04986 8.1066C8.04986 8.09355 8.04333 8.0805 8.03681 8.07397C7.55393 6.44918 7.69097 4.71345 9.13958 3.12128C9.83126 2.52748 10.6273 2.03156 11.5866 1.60742L11.6779 1.56827C11.8084 1.52911 11.9455 1.49649 12.0955 1.46386C12.1347 1.45734 12.1804 1.45081 12.2195 1.43776C12.3565 1.41166 12.4936 1.39208 12.6371 1.38556C12.6567 1.38556 12.6763 1.38556 12.6959 1.37903C12.859 1.36598 13.0221 1.36598 13.1918 1.36598C13.2375 1.36598 13.2766 1.36598 13.3223 1.36598C13.4789 1.37251 13.6355 1.38556 13.7921 1.41166C13.8052 1.41166 13.8247 1.41166 13.8378 1.41166C14.0074 1.43776 14.1706 1.47691 14.3337 1.52259C14.3729 1.53564 14.412 1.54869 14.4512 1.56174C14.6078 1.61394 14.7644 1.67267 14.9079 1.75097C14.9079 1.75097 14.9145 1.75097 14.921 1.75097C15.0711 1.82928 15.2016 1.92063 15.3321 2.02504C15.3647 2.05114 15.3908 2.07724 15.4234 2.10334C15.5474 2.21427 15.6649 2.33172 15.7627 2.47528C15.7954 2.52096 15.8149 2.57316 15.8345 2.61884C15.9911 2.93205 15.9977 3.30399 15.8737 3.71508C15.4365 5.15065 13.5441 7.09518 11.828 8.86353C11.5474 9.15717 11.2603 9.45081 10.9797 9.74445C10.5229 10.2143 10.0792 10.6906 9.66813 11.1539C9.55067 10.9973 9.43974 10.8407 9.32881 10.6776C9.30924 10.6449 9.28966 10.6188 9.27008 10.5862C9.18526 10.4622 9.10695 10.3317 9.02212 10.2012V10.2077ZM11.1233 11.1996C11.2472 11.1148 11.3778 11.0299 11.5148 10.9516C11.5931 10.9059 11.6844 10.8733 11.7627 10.8342C11.8867 10.7754 12.0172 10.7232 12.1477 10.671C12.2391 10.6384 12.337 10.6123 12.4283 10.5797C12.5588 10.5405 12.6893 10.5079 12.8264 10.4818C12.9242 10.4622 13.0221 10.4427 13.1265 10.4296C13.2636 10.41 13.4071 10.4035 13.5441 10.397C13.642 10.397 13.7399 10.3839 13.8378 10.3839C13.9944 10.3839 14.1445 10.4035 14.3011 10.4166C14.3859 10.4231 14.4773 10.4296 14.5621 10.4427C14.8035 10.4818 15.045 10.5275 15.2864 10.5993C15.1167 10.7363 14.9601 10.8603 14.8035 10.9843C14.7252 11.043 14.6534 11.1082 14.5751 11.167C14.4642 11.2583 14.3598 11.3431 14.2554 11.428C14.2358 11.4475 14.2097 11.4606 14.1902 11.4802C14.1249 11.4736 14.0596 11.4671 13.9944 11.4671C13.9357 11.4671 13.8769 11.4541 13.8182 11.4541C13.6812 11.4541 13.5441 11.4541 13.4071 11.4541C13.381 11.4541 13.3549 11.4541 13.3223 11.4541C13.1526 11.4671 12.983 11.4932 12.8198 11.5324H12.8068C12.6502 11.565 12.5001 11.6172 12.35 11.6694C12.3109 11.6825 12.2782 11.702 12.2391 11.7151C12.1216 11.7608 12.0107 11.813 11.8932 11.8717C11.8476 11.8978 11.8084 11.9174 11.7627 11.9435C11.6583 12.0022 11.5605 12.0675 11.4561 12.1392C11.4104 12.1719 11.3712 12.198 11.3256 12.2306C11.2211 12.3089 11.1233 12.3937 11.0189 12.4851C10.9862 12.5112 10.9536 12.5373 10.9275 12.5699C10.921 12.5764 10.9079 12.5829 10.9014 12.596C10.8884 12.5829 10.8753 12.5699 10.8623 12.5568C10.7905 12.4785 10.7187 12.4068 10.6534 12.335C10.5099 12.1784 10.3794 12.0348 10.275 11.9239C10.3141 11.8782 10.3598 11.826 10.399 11.7803C10.5556 11.6107 10.7252 11.4606 10.9079 11.3236C10.9667 11.2779 11.0384 11.2387 11.1037 11.1931L11.1233 11.1996ZM10.5882 17.4769C10.5295 17.4312 10.4707 17.3725 10.4185 17.3203C10.3794 17.2812 10.3337 17.242 10.3011 17.2029C10.288 17.1898 10.2815 17.1767 10.2685 17.1637C10.2946 17.1245 10.3141 17.0919 10.3402 17.0528C10.3794 17.1115 10.4185 17.1637 10.4577 17.2159C10.4838 17.2485 10.5034 17.2812 10.5229 17.3073C10.6143 17.4247 10.7122 17.5356 10.8231 17.64C10.797 17.6205 10.7644 17.6009 10.7383 17.5813C10.6926 17.5487 10.6404 17.5095 10.5947 17.4704L10.5882 17.4769ZM11.7888 13.1506C11.841 13.105 11.8932 13.0593 11.9455 13.0201C12.0042 12.9745 12.0629 12.9418 12.1216 12.9027C12.1738 12.8635 12.2326 12.8309 12.2848 12.7983C12.3435 12.7657 12.4087 12.7396 12.4675 12.7069C12.5262 12.6808 12.5784 12.6482 12.6371 12.6286C12.7024 12.6025 12.7676 12.5829 12.8329 12.5634C12.8786 12.5503 12.9177 12.5373 12.9634 12.5242C12.6437 12.8113 12.2848 13.1506 11.9259 13.503C11.9063 13.5226 11.8867 13.5356 11.8737 13.5552C11.828 13.5095 11.7823 13.4704 11.7366 13.4247C11.7236 13.4117 11.7105 13.4051 11.704 13.3921C11.6714 13.3595 11.6453 13.3334 11.6127 13.3007C11.6127 13.3007 11.6192 13.2942 11.6257 13.2877C11.6779 13.2355 11.7366 13.1963 11.7888 13.1441V13.1506ZM9.52457 13.3399C9.56372 13.2159 9.60287 13.0984 9.65508 12.981C9.67465 12.9353 9.69423 12.8896 9.7138 12.844C9.72033 12.8244 9.73338 12.8048 9.74643 12.7852C9.82473 12.8701 9.90956 12.9614 10.0009 13.0593C10.0009 13.0593 10.0009 13.0593 10.0074 13.0658C10.0662 13.1311 10.1314 13.1963 10.1967 13.2616C10.2358 13.3007 10.2685 13.3399 10.3141 13.3856C10.2163 13.5552 10.1314 13.7314 10.0662 13.9206C10.0531 13.9533 10.0401 13.9859 10.0335 14.0185C9.97482 14.1947 9.92261 14.3774 9.89651 14.5601C9.88999 14.5993 9.88346 14.6449 9.88346 14.6841C9.86389 14.8472 9.85084 15.0104 9.85084 15.1735C9.85084 15.2126 9.85084 15.2518 9.85084 15.2975C9.85084 15.4867 9.87694 15.6759 9.90956 15.8717C9.90956 15.8913 9.90956 15.9174 9.91609 15.9369L9.90304 15.9565L9.85736 16.0283C9.81821 16.087 9.78558 16.1458 9.74643 16.2045C9.61592 15.8717 9.51805 15.5389 9.45932 15.2061C9.45279 15.1604 9.44627 15.1148 9.43974 15.0691C9.42017 14.9255 9.40712 14.782 9.40059 14.6449C9.40059 14.5993 9.40059 14.5601 9.40059 14.5144C9.40059 14.1621 9.43322 13.8162 9.51805 13.4834C9.5311 13.4378 9.54415 13.3921 9.5572 13.3464L9.52457 13.3399ZM10.9862 14.5144C10.9406 14.5666 10.9014 14.6058 10.8623 14.658C10.9014 14.4622 10.9601 14.2795 11.0384 14.1033C11.0384 14.1033 11.0515 14.1099 11.0515 14.1164C11.0515 14.1164 11.0645 14.1294 11.0711 14.136C11.1167 14.1751 11.1624 14.2208 11.2016 14.2599C11.182 14.2795 11.1624 14.3056 11.1428 14.3252C11.0906 14.3839 11.0384 14.4427 10.9862 14.5079V14.5144ZM11.1167 16.4459C11.1167 16.4459 11.0972 16.4133 11.0841 16.4002C11.0515 16.3415 11.0254 16.2763 10.9928 16.2175C10.9797 16.1849 10.9667 16.1458 10.9536 16.1066C10.9601 16.0936 10.9732 16.0805 10.9797 16.074C11.0123 16.2045 11.058 16.3285 11.1102 16.4459H11.1167ZM14.7383 15.8521C14.7383 15.8521 14.7383 15.8717 14.7317 15.8782C14.5229 16.6417 13.7399 17.0919 12.9764 16.8896C12.9699 16.8896 12.9569 16.8896 12.9503 16.8896C12.1934 16.6743 11.7497 15.8913 11.952 15.1278C11.9977 14.9582 12.076 14.795 12.1869 14.6449C12.1869 14.6449 12.1934 14.6319 12.1999 14.6319C12.2195 14.6058 12.2391 14.5862 12.2587 14.5666C12.3174 14.5014 12.3826 14.4427 12.4479 14.3905C12.8133 14.1033 13.2701 14.012 13.7138 14.1294C14.0988 14.2338 14.412 14.4818 14.6012 14.8276L14.6404 14.8994C14.6404 14.9059 14.6861 15.0038 14.6861 15.0104C14.7513 15.1865 14.7774 15.3627 14.7709 15.5389C14.7709 15.6498 14.7579 15.7608 14.7317 15.8717L14.7383 15.8521ZM19.2081 3.09518C20.3043 4.94836 19.2081 7.41492 16.1999 9.89453C15.9911 9.8097 15.7823 9.73792 15.567 9.67267C15.5344 9.66614 15.5083 9.65962 15.4756 9.65309C15.2277 9.58132 14.9797 9.52911 14.7252 9.49649C14.6665 9.48996 14.6012 9.47691 14.5425 9.47039C14.288 9.43776 14.0335 9.41818 13.7791 9.41818C13.7595 9.41818 13.7399 9.41818 13.7203 9.41818C13.6877 9.41818 13.6551 9.41818 13.6224 9.41818C13.3745 9.41818 13.1331 9.45081 12.8916 9.48344C12.8329 9.48996 12.7807 9.50301 12.722 9.50954C12.6632 9.52259 12.598 9.52259 12.5393 9.53564C14.1184 7.91737 15.6388 6.3513 16.4218 4.92226C16.4218 4.92226 16.4218 4.91574 16.4218 4.90921C16.5066 4.7526 16.5784 4.60252 16.6437 4.45244C16.6698 4.39371 16.6893 4.33499 16.7089 4.26973C16.7415 4.17838 16.7872 4.08703 16.8133 3.99567C16.8459 3.88474 16.872 3.77381 16.8916 3.66941C16.8981 3.63026 16.9112 3.5911 16.9177 3.55195C17.0091 2.96468 16.9112 2.41655 16.5523 1.90758C16.4348 1.73792 16.2978 1.59437 16.1608 1.45734C16.1347 1.43776 16.1151 1.41166 16.089 1.39208C15.952 1.2681 15.8019 1.15717 15.6518 1.05277C15.6388 1.04624 15.6322 1.03319 15.6192 1.02667C17.1722 1.242 18.5229 1.95978 19.1885 3.08866L19.2081 3.09518ZM4.63061 10.6188C4.98297 8.96141 5.79863 7.18654 6.87531 5.65309C6.87531 5.65309 6.87531 5.65962 6.87531 5.66614C6.84268 5.888 6.82963 6.10986 6.8231 6.33825C6.8231 6.4035 6.8231 6.46875 6.8231 6.52748C6.8231 6.69061 6.83615 6.86027 6.8492 7.02993C6.85573 7.10823 6.86878 7.19306 6.88183 7.27137C6.90141 7.42797 6.92751 7.5911 6.96666 7.74771C6.98623 7.82601 6.99929 7.91084 7.01886 7.98915C7.06454 8.16533 7.11674 8.34804 7.17547 8.53074C7.19504 8.58947 7.20809 8.6482 7.2342 8.71345C7.31902 8.95489 7.4169 9.20285 7.52783 9.45081C7.54741 9.49649 7.57351 9.53564 7.59309 9.58132C7.69097 9.7836 7.78885 9.99241 7.89978 10.1947C7.94545 10.273 7.99113 10.3578 8.04333 10.4427C8.14121 10.6123 8.24562 10.7885 8.35654 10.9647C8.41527 11.056 8.474 11.1409 8.53273 11.2322C8.65018 11.4084 8.78069 11.5846 8.91119 11.7673C8.95687 11.826 8.9895 11.8782 9.03517 11.9369C8.69586 12.3741 8.40222 12.8048 8.14121 13.2355C8.10858 13.2877 8.07596 13.3464 8.04333 13.3986C7.74317 13.9076 7.50173 14.4035 7.30597 14.8994C7.29292 14.9321 7.27987 14.9647 7.26682 15.0038C6.56209 16.8309 6.51641 18.5405 6.94708 19.963C5.17873 18.0903 3.69749 15.1082 4.64366 10.6254L4.63061 10.6188ZM19.4104 18.5666C19.1689 19.4671 18.7383 20.2697 18.151 20.9484C18.4642 20.472 18.6991 19.963 18.8753 19.441C18.8753 19.4345 18.8753 19.428 18.8818 19.4149C19.0189 19.0038 19.1167 18.5862 19.1689 18.1686C19.182 18.0838 19.182 17.9924 19.195 17.9011C19.195 17.875 19.2016 17.8489 19.2081 17.8228C19.2081 17.7966 19.2081 17.7705 19.2081 17.7444C19.2081 17.6857 19.2081 17.6205 19.2146 17.5617C19.2146 17.4639 19.2146 17.366 19.2146 17.2681C19.2146 17.2094 19.2146 17.1506 19.2146 17.0984C19.2146 16.994 19.2081 16.8962 19.195 16.7918C19.195 16.733 19.182 16.6808 19.1755 16.6221C19.1624 16.5242 19.1494 16.4198 19.1363 16.3219C19.1298 16.2632 19.1167 16.2045 19.1037 16.1458C19.0841 16.0479 19.0645 15.95 19.0384 15.8521C19.0254 15.7934 19.0123 15.7281 18.9928 15.6694C18.9667 15.5781 18.9406 15.4802 18.9079 15.3888C18.8884 15.3301 18.8688 15.2648 18.8492 15.2061C18.8166 15.1148 18.7774 15.0234 18.7448 14.9386C18.7187 14.8798 18.6991 14.8146 18.6665 14.7559C18.6273 14.6645 18.5817 14.5732 18.536 14.4883C18.5099 14.4361 18.4838 14.3774 18.4512 14.3252C18.3924 14.2208 18.3337 14.1229 18.2685 14.025C18.2424 13.9859 18.2228 13.9467 18.1967 13.9076C18.0074 13.6335 17.7921 13.366 17.5507 13.1245C17.5441 13.118 17.5311 13.105 17.5246 13.0984C17.4136 12.9875 17.2897 12.8766 17.1657 12.7722C17.1461 12.7526 17.12 12.7396 17.1004 12.72C16.983 12.6286 16.8655 12.5373 16.735 12.4524C16.7024 12.4329 16.6763 12.4133 16.6437 12.3937C16.5197 12.3154 16.3957 12.2436 16.2652 12.1719C16.226 12.1523 16.1804 12.1327 16.1412 12.1066C16.0172 12.0413 15.8867 11.9826 15.7562 11.9304C15.704 11.9043 15.6453 11.8847 15.5866 11.8652C15.5213 11.8391 15.4626 11.813 15.3908 11.7869C15.6779 11.5585 15.9911 11.3105 16.3304 11.0365C19.0515 12.4459 20.2587 15.3692 19.4039 18.5601L19.4104 18.5666Z" fill="#F9F9F9"/>
</svg>
