<svg width="25" height="24" viewBox="0 0 25 24" fill="none" xmlns="http://www.w3.org/2000/svg">
<path d="M18.271 1.55366C17.0445 0.531516 15.1228 0 12.5061 0C11.1569 0 10.0121 0.122658 9.07173 0.408859C8.13135 0.69506 7.31363 1.06303 6.70035 1.55366C6.08706 2.04429 5.63731 2.61669 5.35111 3.27087C4.91363 4.38705 4.94225 5.26201 4.94225 6.41908H8.74464C8.74464 5.56048 8.98995 4.82453 9.52147 4.21124C10.053 3.59796 11.0342 3.31175 12.547 3.31175C13.283 3.31175 13.8963 3.39353 14.3869 3.55707C15.2496 3.82692 15.777 4.35026 16.1859 5.06985C16.4148 6.02658 16.4394 7.06099 16.145 7.76831C15.8547 8.4552 15.4499 8.7414 14.6731 9.15843C13.1031 9.73083 11.5371 10.2828 10.0939 10.7939C9.39881 11.0392 8.78552 11.2436 8.25401 11.4072C7.19098 11.7751 6.37326 12.4293 5.75997 13.3697C5.18757 14.3101 4.90137 15.3322 4.90137 16.4361C4.88093 17.7404 4.84413 19.2491 5.18757 20.3612C5.392 21.0153 5.75997 21.5877 6.33237 22.1192C6.90478 22.6508 7.68161 23.1005 8.66287 23.4685C9.64413 23.8365 10.9116 24 12.5061 24C14.1007 24 15.3681 23.8365 16.3494 23.4685C17.3307 23.1005 18.1075 22.6508 18.6799 22.1192C19.6775 21.2484 20.0741 19.9441 20.1109 18.6031V5.39693C20.07 3.84327 19.4976 2.57581 18.271 1.55366ZM15.5317 19.7888C15.0002 20.3612 13.978 20.6474 12.5061 20.6474C11.0342 20.6474 10.053 20.3612 9.52147 19.8296C8.98995 19.2981 8.70375 18.4395 8.70375 17.2947C8.7242 15.8024 9.546 14.9724 10.7889 14.3918C12.2608 13.8603 13.8268 13.3247 15.1637 12.7973C15.6421 12.6501 16.1613 12.3721 16.2676 11.816L16.3494 17.2947C16.3494 18.3577 16.0632 19.1755 15.5317 19.7888Z" fill="#F9F9F9"/>
</svg>
