<svg width="24" height="22" viewBox="0 0 24 22" fill="none" xmlns="http://www.w3.org/2000/svg">
<g clip-path="url(#clip0_42_154)">
<path d="M23.5924 11.2333L13.005 0.646013C12.8645 0.505448 12.7014 0.398619 12.5187 0.328337C11.9958 0.11749 11.4026 0.238376 11.0062 0.637579L0.410449 11.2333C0.146187 11.4976 0 11.849 0 12.2229C0 12.5968 0.146187 12.9482 0.410449 13.2125C0.67471 13.4767 1.02612 13.6229 1.40002 13.6229C1.77393 13.6229 2.12534 13.4767 2.3896 13.2125L12.0014 3.59506L21.616 13.2097C22.1614 13.7551 23.047 13.7551 23.5924 13.2097C23.8566 12.9454 24 12.5968 24 12.2229C24 11.849 23.8538 11.4976 23.5924 11.2361V11.2333Z" fill="#011E38"/>
<path d="M18.5883 11.402C17.818 11.402 17.1911 12.029 17.1911 12.7993V18.9785H6.80614V12.7993C6.80614 12.029 6.17922 11.402 5.40893 11.402C4.63864 11.402 4.01172 12.029 4.01172 12.7993V20.3757C4.01172 21.1207 4.59366 21.7335 5.33865 21.7701H5.35271H18.5911C18.6136 21.7701 18.6501 21.7701 18.6923 21.7645C18.7513 21.7617 18.8075 21.7532 18.8638 21.742H18.8722C19.0831 21.697 19.2855 21.6042 19.457 21.4693L19.4654 21.4608C19.5019 21.4327 19.53 21.4046 19.5582 21.3793L19.5835 21.3568C19.5835 21.3568 19.6088 21.3315 19.62 21.3175C19.6481 21.2894 19.6706 21.2612 19.6875 21.2388L19.7072 21.2163C19.7746 21.1291 19.8309 21.0335 19.8758 20.9267C19.8871 20.9042 19.8955 20.8789 19.904 20.8536C19.904 20.848 19.9096 20.8396 19.9124 20.8339C19.918 20.8171 19.9208 20.8058 19.9236 20.7946L19.9293 20.7777C19.9377 20.7524 19.9433 20.7327 19.9461 20.7187C19.9574 20.6793 19.9658 20.6428 19.9714 20.6034C19.9827 20.5275 19.9911 20.4516 19.9911 20.3729V12.7964C19.9911 12.0261 19.3642 11.3992 18.5939 11.3992L18.5883 11.402Z" fill="#011E38"/>
</g>
<defs>
<clipPath id="clip0_42_154">
<rect width="24" height="21.5457" fill="white" transform="translate(0 0.227142)"/>
</clipPath>
</defs>
</svg>
